<svg width="22px" height="22px" viewBox="0 0 22 22" version="1.1" xmlns="http://www.w3.org/2000/svg" xmlns:xlink="http://www.w3.org/1999/xlink">
    <title>3FFDC255-5C38-4564-AE14-37B943F18BF4@3x</title>
    <g id="Desktop" stroke="none" stroke-width="1" fill="none" fill-rule="evenodd">
        <g id="Artículo-v5-Proxima-nova" transform="translate(-716.000000, -84.000000)" fill="#FABE36" fill-rule="nonzero">
            <g id="noun_column_3865443" transform="translate(716.000000, 84.000000)">
                <path d="M4,10.6666667 L3.33333333,10.6666667 C1.49238417,10.6666667 0,9.17428233 0,7.33333333 L0,7 C0,4.974956 1.6416226,3.33333333 3.66666667,3.33333333 L4.50765567,3.33333333 L3.35717443,0.457130333 C3.26959253,0.238175333 3.43084513,0 3.66666667,0 L18.3333333,0 C18.569155,0 18.7304073,0.238175333 18.6428257,0.457130333 L17.4923443,3.33333333 L18.3333333,3.33333333 C20.3583773,3.33333333 22,4.974956 22,7 L22,7.33333333 C22,9.17428233 20.5076157,10.6666667 18.6666667,10.6666667 L18,10.6666667 L18,21.6666667 C18,21.8507617 17.8507617,22 17.6666667,22 C17.4825717,22 17.3333333,21.8507617 17.3333333,21.6666667 L17.3333333,10.6166577 C16.1922133,10.3850223 15.3333333,9.37614567 15.3333333,8.16666667 L15.3333333,7.5 C15.3333333,6.487478 16.1541447,5.66666667 17.1666667,5.66666667 C18.1791887,5.66666667 19,6.487478 19,7.5 L19,7.66666667 C19,7.85076167 18.8507617,8 18.6666667,8 C18.4825717,8 18.3333333,7.85076167 18.3333333,7.66666667 L18.3333333,7.5 C18.3333333,6.85566767 17.810999,6.33333333 17.1666667,6.33333333 C16.5223343,6.33333333 16,6.85566767 16,7.5 L16,8.16666667 C16,9.17918867 16.8208113,10 17.8333333,10 L18.6666667,10 C20.139426,10 21.3333333,8.80609267 21.3333333,7.33333333 L21.3333333,7 C21.3333333,5.34314567 19.9901877,4 18.3333333,4 L3.66666667,4 C2.00981243,4 0.666666667,5.34314567 0.666666667,7 L0.666666667,7.33333333 C0.666666667,8.80609267 1.860574,10 3.33333333,10 L4.16666667,10 C5.1791887,10 6,9.17918867 6,8.16666667 L6,7.5 C6,6.85566767 5.47766553,6.33333333 4.83333333,6.33333333 C4.18900113,6.33333333 3.66666667,6.85566767 3.66666667,7.5 L3.66666667,7.66666667 C3.66666667,7.85076167 3.51742823,8 3.33333333,8 C3.14923843,8 3,7.85076167 3,7.66666667 L3,7.5 C3,6.487478 3.8208113,5.66666667 4.83333333,5.66666667 C5.84585537,5.66666667 6.66666667,6.487478 6.66666667,7.5 L6.66666667,8.16666667 C6.66666667,9.37614567 5.80778683,10.3850223 4.66666667,10.6166577 L4.66666667,21.6666667 C4.66666667,21.8507617 4.51742823,22 4.33333333,22 C4.14923843,22 4,21.8507617 4,21.6666667 L4,10.6666667 Z M4.159011,0.666666667 L5.22567767,3.33333333 L16.7743223,3.33333333 L17.840989,0.666666667 L4.159011,0.666666667 Z M14,15 C14,14.815905 14.1492384,14.6666667 14.3333333,14.6666667 C14.5174283,14.6666667 14.6666667,14.815905 14.6666667,15 L14.6666667,21.6666667 C14.6666667,21.8507617 14.5174283,22 14.3333333,22 C14.1492384,22 14,21.8507617 14,21.6666667 L14,15 Z M10.6666667,15 C10.6666667,14.815905 10.8159051,14.6666667 11,14.6666667 C11.1840949,14.6666667 11.3333333,14.815905 11.3333333,15 L11.3333333,21.6666667 C11.3333333,21.8507617 11.1840949,22 11,22 C10.8159051,22 10.6666667,21.8507617 10.6666667,21.6666667 L10.6666667,15 Z M7.33333333,15 C7.33333333,14.815905 7.48257177,14.6666667 7.66666667,14.6666667 C7.85076157,14.6666667 8,14.815905 8,15 L8,21.6666667 C8,21.8507617 7.85076157,22 7.66666667,22 C7.48257177,22 7.33333333,21.8507617 7.33333333,21.6666667 L7.33333333,15 Z M8.33333333,13 C8.14923843,13 8,12.8507617 8,12.6666667 C8,12.4825717 8.14923843,12.3333333 8.33333333,12.3333333 L13.6666667,12.3333333 C13.8507616,12.3333333 14,12.4825717 14,12.6666667 C14,12.8507617 13.8507616,13 13.6666667,13 L8.33333333,13 Z M10,10.6666667 C9.8159051,10.6666667 9.66666667,10.5174283 9.66666667,10.3333333 C9.66666667,10.1492383 9.8159051,10 10,10 L12,10 C12.1840949,10 12.3333333,10.1492383 12.3333333,10.3333333 C12.3333333,10.5174283 12.1840949,10.6666667 12,10.6666667 L10,10.6666667 Z M11,8.33333333 C10.2636203,8.33333333 9.66666667,7.73637967 9.66666667,7 C9.66666667,6.26362033 10.2636203,5.66666667 11,5.66666667 C11.7363797,5.66666667 12.3333333,6.26362033 12.3333333,7 C12.3333333,7.73637967 11.7363797,8.33333333 11,8.33333333 Z M11,7.66666667 C11.3681898,7.66666667 11.6666667,7.36818967 11.6666667,7 C11.6666667,6.63181033 11.3681898,6.33333333 11,6.33333333 C10.6318102,6.33333333 10.3333333,6.63181033 10.3333333,7 C10.3333333,7.36818967 10.6318102,7.66666667 11,7.66666667 Z" id="Shape"></path>
            </g>
        </g>
    </g>
</svg>