<svg width="15px" height="23px" viewBox="0 0 15 23" version="1.1" xmlns="http://www.w3.org/2000/svg" xmlns:xlink="http://www.w3.org/1999/xlink">
    <title>7A7D84B1-527A-4F73-A169-6D0CF69322EE@3x</title>
    <g id="Desktop" stroke="none" stroke-width="1" fill="none" fill-rule="evenodd">
        <g id="Artículo-v5-Proxima-nova" transform="translate(-152.000000, -85.000000)" fill="#4240FD" fill-rule="nonzero">
            <g id="noun_Book_3324647" transform="translate(152.000000, 85.000000)">
                <path d="M14.6350818,4.09960972 L14.3596415,4.09960972 C14.1330839,3.57653207 14.0099922,3.01014549 13.9978981,2.43510653 C14.0100185,1.86007523 14.133096,1.29369671 14.359605,0.770603331 L14.6350818,0.770603331 C14.8366205,0.770603331 15,0.5980979 15,0.385301666 C15,0.172505432 14.8366205,0 14.6350818,0 L2.30518841,0 C1.03283091,0.00176153713 0.00176906029,1.09032983 0,2.43375797 L0,2.43433592 L0,17.3994526 C0.00136741941,18.7431892 1.03264853,19.8321786 2.30529788,19.83375 L2.96528898,19.83375 L2.96528898,22.6147804 C2.96531854,22.7589892 3.0416142,22.8911088 3.16301576,22.9571797 C3.28441733,23.0232506 3.43059961,23.0122112 3.54185977,22.92857 L4.68040462,22.0717362 L5.81931439,22.92857 C5.93057455,23.0122112 6.07675683,23.0232506 6.1981584,22.9571797 C6.31955996,22.8911088 6.39585562,22.7589892 6.39588518,22.6147804 L6.39588518,19.8335574 L14.6350818,19.8335574 C14.8366205,19.8335574 15,19.6610519 15,19.4482557 L15,4.48491139 C15,4.27211515 14.8366205,4.09960972 14.6350818,4.09960972 Z M2.30518841,0.770603331 L13.5702869,0.770603331 C13.4275384,1.16988809 13.3331309,1.58657969 13.2892269,2.01081233 L8.98279046,2.01081233 C8.78125169,2.01081233 8.61787223,2.18331776 8.61787223,2.396114 C8.61787223,2.60891023 8.78125169,2.78141566 8.98279046,2.78141566 L13.2834247,2.78141566 C13.3225299,3.23244955 13.4190188,3.67586291 13.5702869,4.09968678 L2.30526139,4.09968678 C1.43461391,4.09968678 0.728814673,3.35446332 0.728814673,2.43518359 C0.728814673,1.51590386 1.43461391,0.770680392 2.30526139,0.770680392 L2.30518841,0.770603331 Z M0.729726968,17.39926 L0.729726968,4.20811067 C1.15554383,4.63312261 1.71922891,4.87001654 2.30518841,4.87021305 L2.71181678,4.87021305 L2.71181678,19.062954 L2.30518841,19.062954 C1.43541653,19.0618922 0.730611795,18.3176153 0.729726968,17.39926 L0.729726968,17.39926 Z M5.66608523,21.8669484 L4.89205719,21.284642 C4.88866345,21.282099 4.88457637,21.2819063 4.88110964,21.2795174 C4.85889014,21.2657817 4.83532443,21.2546325 4.81082639,21.2462659 C4.77341655,21.2231048 4.7297199,21.2138909 4.6867542,21.2201039 C4.66121561,21.2178747 4.63552417,21.2185464 4.61012137,21.2221075 C4.59162068,21.2277239 4.57357313,21.2348875 4.55614997,21.2435303 C4.5293401,21.2522963 4.5036146,21.264403 4.47951714,21.2795945 C4.4761234,21.2819834 4.47221878,21.2821375 4.46878854,21.284642 L3.69516191,21.8667557 L3.69516191,19.8335574 L5.6662312,19.8335574 L5.66608523,21.8669484 Z M3.44165323,19.062954 L3.44165323,4.87021305 L14.2701636,4.87021305 L14.2701636,19.062954 L3.44165323,19.062954 Z M12.851471,17.2867133 C12.851471,17.4995096 12.6880915,17.672015 12.4865528,17.672015 L10.9980148,17.672015 C10.7964761,17.672015 10.6330966,17.4995096 10.6330966,17.2867133 C10.6330966,17.0739171 10.7964761,16.9014117 10.9980148,16.9014117 L12.4865528,16.9014117 C12.6880488,16.9014117 12.8514105,17.0738467 12.851471,17.2865978 L12.851471,17.2867133 Z M3.59740032,2.43514506 C3.59740032,2.22234882 3.76077978,2.04984339 3.96231854,2.04984339 L6.97464548,2.04984339 C7.17618425,2.04984339 7.3395637,2.22234882 7.3395637,2.43514506 C7.3395637,2.64794129 7.17618425,2.82044672 6.97464548,2.82044672 L3.96231854,2.82044672 C3.76077978,2.82044672 3.59740032,2.64794129 3.59740032,2.43514506 Z M6.1414642,7.32535527 C6.1414642,7.11255903 6.30484365,6.9400536 6.50638242,6.9400536 L11.2057993,6.9400536 C11.407338,6.9400536 11.5707175,7.11255903 11.5707175,7.32535527 C11.5707175,7.5381515 11.407338,7.71065693 11.2057993,7.71065693 L6.50638242,7.71065693 C6.30484365,7.71065693 6.1414642,7.5381515 6.1414642,7.32535527 Z M12.1516673,10.3022345 L5.56025895,10.3022345 C5.35872018,10.3022345 5.19534072,10.129729 5.19534072,9.9169328 C5.19534072,9.70413657 5.35872018,9.53163113 5.56025895,9.53163113 L12.1515943,9.53163113 C12.3531331,9.53163113 12.5165125,9.70413657 12.5165125,9.9169328 C12.5165125,10.129729 12.3531331,10.3022345 12.1515943,10.3022345 L12.1516673,10.3022345 Z" id="Shape"></path>
            </g>
        </g>
    </g>
</svg>