<svg width="100px" height="41px" viewBox="0 0 140.439124 41" version="1.1" xmlns="http://www.w3.org/2000/svg" xmlns:xlink="http://www.w3.org/1999/xlink">
    <title>E2F1D710-404A-4D9C-A58D-41B2932FB122</title>
    <g id="Desktop" stroke="none" stroke-width="1" fill="none" fill-rule="evenodd">
        <g id="Homepage-logo-nuevo" transform="translate(-72.000000, -12.000000)">
            <g id="logo-ejemplos" transform="translate(72.000000, 12.000000)">
                <g id="ENCICLOPEDIA-DE-EJEM-Copy" transform="translate(33.794524, 8.594030)" fill="#FFFFFF" fill-rule="nonzero">
                    <polygon id="Path" points="7.2252 10.9836 7.2252 10.1412 1.296 10.1412 1.296 5.8644 7.1118 5.8644 7.1118 5.022 1.296 5.022 1.296 1.0206 7.2252 1.0206 7.2252 0.1782 0.3726 0.1782 0.3726 10.9836"></polygon>
                    <polygon id="Path" points="17.8416 10.9836 17.8416 0.1782 16.9182 0.1782 16.9182 9.3312 10.1466 0.1782 9.207 0.1782 9.207 10.9836 10.1304 10.9836 10.1304 1.701 16.9344 10.9836"></polygon>
                    <path d="M25.299,11.178 C27.0162,11.178 28.2798,10.4328 29.2356,9.2502 L28.458,8.7642 C27.7776,9.7038 26.595,10.3356 25.299,10.3356 C22.7556,10.3356 20.7954,8.3754 20.7954,5.589 C20.7954,2.7702 22.7556,0.8424 25.299,0.8424 C26.595,0.8424 27.7776,1.4742 28.458,2.4138 L29.2356,1.9116 C28.3122,0.7614 27.0162,0 25.299,0 C22.2372,0 19.8234,2.268 19.8234,5.589 C19.8234,8.91 22.2372,11.178 25.299,11.178 Z" id="Path"></path>
                    <polygon id="Path" points="31.7358 10.9836 31.7358 0.1782 30.8124 0.1782 30.8124 10.9836"></polygon>
                    <path d="M39.1932,11.178 C40.9104,11.178 42.174,10.4328 43.1298,9.2502 L42.3522,8.7642 C41.6718,9.7038 40.4892,10.3356 39.1932,10.3356 C36.6498,10.3356 34.6896,8.3754 34.6896,5.589 C34.6896,2.7702 36.6498,0.8424 39.1932,0.8424 C40.4892,0.8424 41.6718,1.4742 42.3522,2.4138 L43.1298,1.9116 C42.2064,0.7614 40.9104,0 39.1932,0 C36.1314,0 33.7176,2.268 33.7176,5.589 C33.7176,8.91 36.1314,11.178 39.1932,11.178 Z" id="Path"></path>
                    <polygon id="Path" points="50.8626 10.9836 50.8626 10.1412 45.63 10.1412 45.63 0.1782 44.7066 0.1782 44.7066 10.9836"></polygon>
                    <path d="M56.8134,11.178 C59.9724,11.178 62.0622,8.748 62.0622,5.589 C62.0622,2.43 59.9724,0 56.8134,0 C53.6382,0 51.5646,2.43 51.5646,5.589 C51.5646,8.748 53.6382,11.178 56.8134,11.178 Z M56.8134,10.3356 C54.189,10.3356 52.5366,8.3106 52.5366,5.589 C52.5366,2.835 54.189,0.8424 56.8134,0.8424 C59.4054,0.8424 61.0902,2.835 61.0902,5.589 C61.0902,8.3106 59.4054,10.3356 56.8134,10.3356 Z" id="Shape"></path>
                    <path d="M64.9674,10.9836 L64.9674,6.4962 L68.094,6.4962 C70.1514,6.4962 71.3502,5.0382 71.3502,3.3372 C71.3502,1.6362 70.1676,0.1782 68.094,0.1782 L64.044,0.1782 L64.044,10.9836 L64.9674,10.9836 Z M67.9968,5.6538 L64.9674,5.6538 L64.9674,1.0206 L67.9968,1.0206 C69.4224,1.0206 70.3782,1.9764 70.3782,3.3372 C70.3782,4.698 69.4224,5.6538 67.9968,5.6538 Z" id="Shape"></path>
                    <polygon id="Path" points="79.8444 10.9836 79.8444 10.1412 73.9152 10.1412 73.9152 5.8644 79.731 5.8644 79.731 5.022 73.9152 5.022 73.9152 1.0206 79.8444 1.0206 79.8444 0.1782 72.9918 0.1782 72.9918 10.9836"></polygon>
                    <path d="M85.2768,10.9836 C88.6302,10.9836 90.7362,8.586 90.7362,5.589 C90.7362,2.6244 88.6302,0.1782 85.2768,0.1782 L81.8262,0.1782 L81.8262,10.9836 L85.2768,10.9836 Z M85.2768,10.1412 L82.7496,10.1412 L82.7496,1.0206 L85.2768,1.0206 C88.1442,1.0206 89.7642,3.0618 89.7642,5.589 C89.7642,8.1162 88.128,10.1412 85.2768,10.1412 Z" id="Shape"></path>
                    <polygon id="Path" points="93.6576 10.9836 93.6576 0.1782 92.7342 0.1782 92.7342 10.9836"></polygon>
                    <path d="M104.9382,10.9836 L100.5156,0.1782 L99.3654,0.1782 L94.9428,10.9836 L96.012,10.9836 L97.0812,8.3268 L102.7998,8.3268 L103.869,10.9836 L104.9382,10.9836 Z M102.492,7.4844 L97.389,7.4844 L99.9324,1.1664 L102.492,7.4844 Z" id="Shape"></path>
                    <path d="M4.5522,25.0236 C7.938,25.0236 10.3842,22.9662 10.3842,19.6128 C10.3842,16.2594 7.938,14.2182 4.536,14.2182 L0,14.2182 L0,25.0236 L4.5522,25.0236 Z M4.536,22.5936 L2.7864,22.5936 L2.7864,16.6482 L4.5522,16.6482 C6.5286,16.6482 7.533,17.9442 7.533,19.6128 C7.533,21.2166 6.4314,22.5936 4.536,22.5936 Z" id="Shape"></path>
                    <polygon id="Path" points="19.6992 25.0236 19.6992 22.5936 14.5638 22.5936 14.5638 20.763 19.5858 20.763 19.5858 18.333 14.5638 18.333 14.5638 16.6482 19.6992 16.6482 19.6992 14.2182 11.7774 14.2182 11.7774 25.0236"></polygon>
                    <polygon id="Path" points="33.3882 25.0236 33.3882 22.5936 28.2528 22.5936 28.2528 20.763 33.2748 20.763 33.2748 18.333 28.2528 18.333 28.2528 16.6482 33.3882 16.6482 33.3882 14.2182 25.4664 14.2182 25.4664 25.0236"></polygon>
                    <path d="M37.0494,25.218 C39.4146,25.218 41.0346,23.9868 41.0346,21.3138 L41.0346,14.2182 L38.2482,14.2182 L38.2482,21.2814 C38.2482,22.1886 37.6812,22.7556 36.8064,22.7556 C36.1584,22.7556 35.64,22.4478 35.2512,22.1238 L34.0848,24.246 C34.8948,24.9588 35.964,25.218 37.0494,25.218 Z" id="Path"></path>
                    <polygon id="Path" points="50.9004 25.0236 50.9004 22.5936 45.765 22.5936 45.765 20.763 50.787 20.763 50.787 18.333 45.765 18.333 45.765 16.6482 50.9004 16.6482 50.9004 14.2182 42.9786 14.2182 42.9786 25.0236"></polygon>
                    <polygon id="Path" points="64.7838 25.0236 64.7838 14.2182 60.912 14.2182 58.644 20.0826 56.3922 14.2182 52.5204 14.2182 52.5204 25.0236 55.3068 25.0236 55.3068 17.9928 58.0284 25.0236 59.2596 25.0236 61.9974 17.9928 61.9974 25.0236"></polygon>
                    <path d="M69.5142,25.0236 L69.5142,21.3948 L72.1386,21.3948 C74.5686,21.3948 75.897,19.7586 75.897,17.8146 C75.897,15.8544 74.5686,14.2182 72.1386,14.2182 L66.7278,14.2182 L66.7278,25.0236 L69.5142,25.0236 Z M71.766,18.9648 L69.5142,18.9648 L69.5142,16.6482 L71.766,16.6482 C72.5112,16.6482 73.062,17.0694 73.062,17.8146 C73.062,18.5436 72.5112,18.9648 71.766,18.9648 Z" id="Shape"></path>
                    <polygon id="Path" points="84.2724 25.0236 84.2724 22.5936 79.9308 22.5936 79.9308 14.2182 77.1444 14.2182 77.1444 25.0236"></polygon>
                    <path d="M90.9468,25.218 C94.2516,25.218 96.714,22.9176 96.714,19.629 C96.714,16.3404 94.2516,14.04 90.9468,14.04 C87.642,14.04 85.1634,16.3404 85.1634,19.629 C85.1634,22.9176 87.642,25.218 90.9468,25.218 Z M90.9468,22.7556 C89.1486,22.7556 87.9984,21.3786 87.9984,19.629 C87.9984,17.8632 89.1486,16.5024 90.9468,16.5024 C92.7288,16.5024 93.879,17.8632 93.879,19.629 C93.879,21.3786 92.7288,22.7556 90.9468,22.7556 Z" id="Shape"></path>
                    <path d="M102.141,25.218 C105.0408,25.218 106.6446,23.7762 106.6446,21.6054 C106.6446,17.5878 100.5372,18.5922 100.5372,17.2152 C100.5372,16.7616 100.8936,16.4376 101.7036,16.4376 C102.7728,16.4376 103.9554,16.8102 104.8626,17.5554 L106.3854,15.5628 C105.2352,14.5746 103.7286,14.0562 101.9952,14.0562 C99.225,14.0562 97.686,15.6762 97.686,17.4906 C97.686,21.654 103.8096,20.4714 103.8096,21.9456 C103.8096,22.464 103.2264,22.8366 102.2706,22.8366 C100.7964,22.8366 99.5976,22.1886 98.82,21.411 L97.3458,23.5008 C98.4312,24.5376 99.954,25.218 102.141,25.218 Z" id="Path"></path>
                </g>
                <g id="iso-copy-2">
                    <g id="Group-3" fill="#FFFFFF">
                        <path d="M28.126954,7.49804798 L17.9778247,0.155212115 C17.7188768,-0.0324838789 17.3726358,-0.0516100683 17.0951218,0.106910383 L12.3793384,2.78879114 C11.9887994,3.01084944 11.8532996,3.50586116 12.0764182,3.89454423 C12.2995369,4.2832273 12.7978895,4.41775897 13.1874513,4.19602484 L17.4459229,1.77413059 L26.2224654,8.12370129 L14.3812175,15.5154872 C11.366673,17.3010305 11.3819819,19.2826982 11.3956621,21.0312858 L11.5689455,38.9470143 L9.27815228,37.7573005 L9.27815228,25.4513805 C9.27815228,25.0302802 8.93484273,24.6886022 8.5114059,24.6886022 C8.0882948,24.6886022 7.74498525,25.0302802 7.74498525,25.4513805 L7.74498525,36.9608081 L5.24279934,35.6608756 L5.24279934,22.4090197 C5.24279934,21.9875952 4.89948979,21.6459172 4.47637868,21.6459172 C4.05294186,21.6459172 3.70963231,21.9875952 3.70963231,22.4090197 L3.70963231,34.8647074 L1.53316703,33.7343172 L1.53316703,20.3401496 C1.53316703,19.918725 1.1901832,19.577047 0.766746374,19.577047 C0.343309549,19.577047 0,19.918725 0,20.3401496 L0,34.1969117 C0,34.4812111 0.15895167,34.741846 0.412036603,34.8734601 L11.8966205,40.8388862 C11.9151865,40.8525014 11.929844,40.8696826 11.9493872,40.881677 C12.0757668,40.9601268 12.2197353,41 12.3640296,41 C12.4786832,41 12.5936626,40.9750387 12.700499,40.9247919 L27.984614,33.6912023 C28.2572422,33.5621815 28.431177,33.2882556 28.431177,32.9874233 L28.431177,8.36812751 C28.5184702,8.05205913 28.409028,7.70195261 28.126954,7.49804798" id="Fill-1"></path>
                    </g>
                    <g id="Group-6" transform="translate(0.000000, 4.565480)"></g>
                    <path d="M0.766746374,15.1031396 C1.1901832,15.1031396 1.53349275,14.7614615 1.53349275,14.340037 L1.53349275,13.703686 C1.53349275,12.5985813 1.8878768,11.5534485 2.53247793,10.7611704 C2.86373582,10.353037 3.26502364,10.0000129 3.72396402,9.71117501 C6.0046599,8.27768333 10.0217725,6.01528204 10.0618361,5.99258995 C10.4305519,5.7854436 10.5601887,5.3199316 10.3520532,4.9529681 C10.143592,4.58632877 9.67520573,4.45698387 9.30746713,4.66445439 C9.26675206,4.68747066 5.21771885,6.96770144 2.90510234,8.42129183 C2.30414777,8.79895303 1.77778322,9.26349251 1.34034041,9.80129502 C0.475877847,10.8645815 0,12.2504198 0,13.703686 L0,14.340037 C0,14.7614615 0.343309549,15.1031396 0.766746374,15.1031396" id="Fill-4" fill="#00E5A6"></path>
                    <path d="M14.0439989,6.50653335 C13.8361891,6.6235597 8.92692772,9.39199457 6.61561409,10.8449366 C6.50552052,10.9139854 6.40031275,10.9846551 6.29901364,11.0569456 C4.67757632,12.2100279 3.70953459,14.1411246 3.70953459,16.2226376 L3.70953459,17.088827 C3.70953459,17.5102515 4.05284414,17.8519296 4.47628097,17.8519296 C4.89971779,17.8519296 5.24270162,17.5102515 5.24270162,17.088827 L5.24270162,16.2226376 C5.24270162,14.6328946 5.97101296,13.165689 7.19018529,12.298527 C7.26803253,12.2434177 7.34848552,12.1889566 7.43349861,12.1357923 C9.71452021,10.7019765 14.7491841,7.86287194 14.7996708,7.83434474 C15.1680608,7.62687421 15.2976976,7.16103804 15.0889107,6.79439871 C14.8804495,6.42743522 14.4117375,6.29873865 14.0439989,6.50653335" id="Fill-7" fill="#00E5A6"></path>
                    <path d="M11.2655042,14.3463584 C11.3104536,14.310051 11.3615917,14.2808755 11.4120784,14.2494307 L11.4687538,14.2140959 C13.7530326,12.778335 20.5658054,8.85325196 20.6342068,8.81402706 C21.0006425,8.60299063 21.1257192,8.13618194 20.9136751,7.77148765 C20.7016309,7.40679336 20.2329189,7.28231105 19.8661575,7.4930233 C19.5853863,7.65478548 12.9592515,11.4722432 10.6502179,12.9238886 L10.6016855,12.9540366 C10.5082037,13.0120635 10.4023445,13.0775464 10.2945309,13.1653972 C8.47733553,14.6442731 7.62003881,16.3805421 7.74478982,18.3262266 L7.74478982,19.4913033 C7.74478982,19.9127278 8.08809937,20.2544059 8.51153619,20.2544059 C8.93497302,20.2544059 9.27795685,19.9127278 9.27795685,19.4913033 L9.27795685,18.3012653 C9.27795685,18.28376 9.2773054,18.2662547 9.27632824,18.2490735 C9.17633201,16.7938623 9.82679611,15.5172702 11.2655042,14.3463584" id="Fill-9" fill="#00E5A6"></path>
                </g>
            </g>
        </g>
    </g>
</svg>