<svg width="20px" height="20px" viewBox="0 0 20 20" version="1.1" xmlns="http://www.w3.org/2000/svg" xmlns:xlink="http://www.w3.org/1999/xlink">
    <title>0B6E31CA-B6AD-4EB8-93FA-7C9B8E8CCF92@3x</title>
    <g id="Desktop" stroke="none" stroke-width="1" fill="none" fill-rule="evenodd">
        <g id="Artículo-v5-Proxima-nova" transform="translate(-1003.000000, -87.000000)" fill="#FF7878" fill-rule="nonzero">
            <g id="noun_english_902379" transform="translate(1003.000000, 87.000000)">
                <path d="M17.5555556,0 L2.44444444,0 C1.08888889,0 0,1.02222222 0,2.28888889 L0,13.7777778 C0,15.0444444 1.08888889,16.0666667 2.44444444,16.0666667 L4.04444444,16.0666667 L4.04444444,19.4666667 C4.04444444,19.6666667 4.17777778,19.8666667 4.37777778,19.9555556 C4.46666667,20 4.53333333,20 4.62222222,20 C4.75555556,20 4.88888889,19.9555556 5,19.8888889 L10.0444444,16.0666667 L17.5555556,16.0666667 C18.9111111,16.0666667 20,15.0444444 20,13.7777778 L20,2.28888889 C20,1.02222222 18.9111111,0 17.5555556,0 Z M18.8666667,13.7555556 C18.8666667,14.4222222 18.2888889,14.9555556 17.5777778,14.9555556 L9.82222222,14.9555556 C9.68888889,14.9555556 9.55555556,15 9.44444444,15.0666667 L5.2,18.2888889 L5.2,15.4888889 C5.2,15.2 4.93333333,14.9555556 4.62222222,14.9555556 L2.44444444,14.9555556 C1.73333333,14.9555556 1.15555556,14.4222222 1.15555556,13.7555556 L1.15555556,2.33333333 C1.15555556,1.66666667 1.73333333,1.13333333 2.44444444,1.13333333 L17.6,1.13333333 C18.3111111,1.13333333 18.8888889,1.66666667 18.8888889,2.33333333 L18.8888889,13.7555556 L18.8666667,13.7555556 Z" id="Shape"></path>
                <polygon id="Path" points="4.77777778 8.08888889 6.88888889 8.08888889 6.88888889 7.33333333 4.77777778 7.33333333 4.77777778 6.4 7.08888889 6.4 7.08888889 5.62222222 3.86666667 5.62222222 3.86666667 10 7.2 10 7.2 9.22222222 4.77777778 9.22222222"></polygon>
                <polygon id="Path" points="10.6 8.66666667 8.84444444 5.62222222 7.88888889 5.62222222 7.88888889 10 8.75555556 10 8.75555556 6.88888889 10.5333333 10 11.4444444 10 11.4444444 5.62222222 10.6 5.62222222"></polygon>
                <path d="M14.3555556,8.37777778 L15.3777778,8.37777778 C15.3333333,8.66666667 15.2222222,8.88888889 15.0222222,9.06666667 C14.8222222,9.24444444 14.5777778,9.33333333 14.2666667,9.33333333 C13.9555556,9.33333333 13.6666667,9.22222222 13.4222222,9 C13.1777778,8.77777778 13.0444444,8.4 13.0444444,7.86666667 C13.0444444,7.33333333 13.1555556,6.93333333 13.3777778,6.66666667 C13.6,6.4 13.8888889,6.26666667 14.2444444,6.26666667 C14.4222222,6.26666667 14.6,6.28888889 14.7555556,6.35555556 C15.0222222,6.46666667 15.2,6.68888889 15.2666667,6.97777778 L16.1777778,6.97777778 C16.1333333,6.55555556 15.9333333,6.2 15.6,5.91111111 C15.2666667,5.62222222 14.8222222,5.48888889 14.2666667,5.48888889 C13.6222222,5.48888889 13.1111111,5.71111111 12.7111111,6.13333333 C12.3111111,6.55555556 12.1333333,7.13333333 12.1333333,7.84444444 C12.1333333,8.55555556 12.3333333,9.08888889 12.7111111,9.51111111 C13.0888889,9.91111111 13.5555556,10.1111111 14.1333333,10.1111111 C14.4888889,10.1111111 14.7777778,10.0444444 15.0222222,9.88888889 C15.1555556,9.8 15.3111111,9.66666667 15.4888889,9.44444444 L15.5555556,10 L16.1555556,10 L16.1555556,7.64444444 L14.3333333,7.64444444 L14.3333333,8.37777778 L14.3555556,8.37777778 Z" id="Path"></path>
            </g>
        </g>
    </g>
</svg>