<svg width="19px" height="21px" viewBox="0 0 19 21" version="1.1" xmlns="http://www.w3.org/2000/svg" xmlns:xlink="http://www.w3.org/1999/xlink">
    <title>729CA741-C8FD-432F-A086-91868A906895@3x</title>
    <g id="Desktop" stroke="none" stroke-width="1" fill="none" fill-rule="evenodd">
        <g id="Artículo-v5-Proxima-nova" transform="translate(-433.000000, -85.000000)" fill="#39A3A5">
            <g id="Group-3" transform="translate(433.000000, 85.000000)">
                <path d="M13.167102,11.5968585 C14.0034788,10.9811944 15.1398753,10.8752328 16.1049888,11.2996226 C15.8477899,11.5544739 15.5903165,11.7878611 15.354528,12.0639047 C14.9683179,12.4882945 14.7111189,12.827915 14.4967408,13.0827662 C14.1536259,13.5283484 13.9606581,13.7620073 13.6175432,13.9106252 C13.2744283,14.0592432 12.8453975,14.1016278 12.3521355,13.9953945 C12.9741342,13.2099202 13.7245951,12.7855304 14.2392674,12.5733355 L14.0034788,11.9788637 C13.4888065,12.1913303 12.7811664,12.5733355 12.1377574,13.2525765 C12.2664941,12.7431457 12.523693,12.085097 13.167102,11.5968585 L13.167102,11.5968585 Z M11.8374632,3.65816074 C12.7383457,1.76905551 14.7967604,0.601575982 17.0055967,0.601575982 C17.2630701,0.601575982 17.5419539,0.622768303 17.7991528,0.643960624 C17.3487116,1.21724008 16.962776,1.83263247 16.6841667,2.49068121 C16.2337255,3.53100681 16.1263992,4.33740179 16.0407577,5.03783517 C15.9548417,5.65349926 15.8906106,6.18412238 15.5903165,6.73593781 C15.0970546,7.64883779 14.0891203,8.34927117 12.609609,8.7948533 L12.609609,8.77366098 C13.2313331,7.09702236 14.0677099,5.50488132 15.1184649,4.01897359 L14.5823822,3.67935306 C13.5102169,5.16526079 12.6738401,6.79978647 12.030431,8.49788911 C11.5802643,7.54260449 10.9154449,5.5899223 11.8374632,3.65816074 L11.8374632,3.65816074 Z M12.2450837,18.4740384 L12.4380515,18.3468844 C12.609609,18.2406511 13.4459858,17.7524127 14.4536455,18.0920332 C15.2043809,18.3468844 15.5903165,18.9198922 15.7190532,19.1532794 L15.8263795,19.3230897 L16.0193473,19.3230897 C16.2337255,19.3230897 17.0055967,19.3230897 17.5847747,19.8963691 C17.7349217,20.0449871 17.8419736,20.2147973 17.9278895,20.3634153 L4.35344155,20.3634153 C4.52499899,20.1297564 4.73937716,19.8963691 5.0396713,19.6841742 C5.91886886,19.0897025 6.90539275,19.2383204 7.18400203,19.280705 L7.42006507,19.3230897 L7.52711691,19.1108948 C7.69867435,18.7924666 8.17052593,18.0496485 9.09254422,17.710028 C10.6579715,17.1370203 12.0521159,18.3042281 12.0735263,18.3256921 L12.2450837,18.4740384 Z M5.44701728,9.09208919 C5.0396713,8.83750964 4.7821979,8.51908143 4.46049339,8.11561225 C4.11737852,7.71241475 3.71003253,7.20298396 3.00239241,6.60878389 C2.46630973,6.16293006 1.86572145,5.75973257 1.2437228,5.39891972 C3.17394985,4.14639921 5.59716435,4.12520689 7.29132837,5.3774557 C8.55646154,6.29035568 9.00690275,7.64883779 9.17846019,8.5826584 C7.82741105,7.22417628 6.30480448,6.54493523 5.18981837,6.2053147 L5.01826093,6.82097879 C6.15465741,7.16059932 7.74149509,7.90341734 9.09254422,9.43170972 C7.54852728,9.77133025 6.32621484,9.66536864 5.44701728,9.09208919 L5.44701728,9.09208919 Z M16.1478096,7.05436602 C16.4909244,6.39631728 16.5768404,5.78092489 16.6624819,5.14406847 C16.7483978,4.48601974 16.8340393,3.7220094 17.2630701,2.76672477 C17.606185,2.00244274 18.0563517,1.30200936 18.6355297,0.665424641 L19.0000549,0.261955453 L18.4639722,0.155993848 C15.504675,-0.480862566 12.4594619,0.877619547 11.2585598,3.40358119 C9.97174178,6.09935309 11.3658861,8.73127634 11.7518218,9.34694043 C11.5157587,10.0897585 11.3227909,10.8540405 11.1512335,11.6180508 C10.829529,10.8540405 10.422183,10.1109508 9.90751068,9.45290204 C9.88610031,8.71008402 9.65003727,6.33274032 7.65585361,4.88948892 C5.59716435,3.38238887 2.61618231,3.50954279 0.407620473,5.20764543 L0,5.52607364 L0.45044121,5.75973257 C1.20090207,6.14173774 1.90854219,6.58759157 2.5519512,7.11821468 C3.21677059,7.67003011 3.6027062,8.13707626 3.94582108,8.54027375 C4.28893595,8.96466357 4.58923009,9.32574811 5.06108167,9.64417632 C5.70449069,10.0685661 6.49777228,10.280761 7.44147544,10.280761 C8.06319959,10.280761 8.74942935,10.1747994 9.47847983,10.0049892 C10.1218889,10.8964251 10.6151508,11.9152867 10.8726242,12.9765329 C10.7010668,14.3138227 10.6579715,15.6723048 10.7224771,17.030787 C10.1647096,16.9033613 9.5001647,16.882169 8.79225008,17.1370203 C7.82741105,17.4766408 7.24850763,18.1982665 6.99103423,18.6438486 C6.45495154,18.5802717 5.48983802,18.5590793 4.58923009,19.1747434 C3.94582108,19.5991332 3.6027062,20.172141 3.43114876,20.5544179 L3.21677059,21 L18.7211711,21 L18.6141193,20.5968025 C18.506793,20.1509487 18.2710044,19.7689435 17.9492999,19.4505153 C17.3273013,18.8136589 16.5126093,18.7076973 16.1049888,18.686505 C15.8692003,18.3468844 15.3973487,17.773605 14.6037926,17.4978331 C13.5530376,17.1370203 12.6524297,17.4978331 12.2233988,17.710028 C12.0521159,17.5826024 11.7518218,17.3915998 11.3872965,17.2429819 C11.3658861,16.882169 11.3442013,16.5425485 11.3442013,16.202928 C11.4087069,15.7785381 11.558854,15.1840664 11.9233792,14.5898663 C12.2664941,14.6746356 12.5665137,14.7384842 12.8668079,14.7384842 C13.2313331,14.7384842 13.5530376,14.6746356 13.8319214,14.54721 C14.303773,14.3350151 14.5609719,14.0165868 14.9469075,13.5283484 C15.1615602,13.2737688 15.4187591,12.9341483 15.7832843,12.5309508 C16.1049888,12.1698663 16.4481037,11.8302457 16.8126289,11.5120892 L17.1343334,11.2360457 L16.7698082,11.0023867 C15.504675,10.1959918 13.8747421,10.2595687 12.7166608,11.1298124 C12.0735263,11.6180508 11.7304114,12.2549072 11.558854,12.827915 C11.709001,11.7242841 11.9661999,10.6627662 12.3093148,9.60151998 C14.2606777,9.04970455 15.5260854,8.22184555 16.1478096,7.05436602 L16.1478096,7.05436602 Z" id="Fill-1"></path>
            </g>
        </g>
    </g>
</svg>